<svg data-name="Layer 1" xmlns="http://www.w3.org/2000/svg" viewBox="0 0 432 300"><defs><style>.cls-1{fill:#e1e1e1;}.cls-2{fill:#737577;}.cls-3{fill:#161616;}.cls-4{fill:#38383b;}.cls-5{fill:#742774;}.cls-6{fill:#fff;}</style></defs><title>AspectRatio-3-4</title><rect class="cls-1" width="432" height="300"/><path class="cls-2" d="M312,264.6V35.3a7.29887,7.29887,0,0,0-7.4-7.3H127.4a7.42766,7.42766,0,0,0-7.4,7.3V264.6a7.44765,7.44765,0,0,0,7.4,7.4H304.7A7.36248,7.36248,0,0,0,312,264.6Z"/><path class="cls-3" d="M127.35,270.55a5.91075,5.91075,0,0,1-5.9-5.9V35.35a5.91075,5.91075,0,0,1,5.9-5.9h177.3a5.97592,5.97592,0,0,1,5.9,5.9v229.3a5.95665,5.95665,0,0,1-5.8,5.9Z"/><path class="cls-4" d="M306.1,29.6H183.8l81.3,241h41.1a5.82636,5.82636,0,0,0,5.8-5.9V35.4A5.82638,5.82638,0,0,0,306.1,29.6Z"/><rect class="cls-5" x="137" y="45" width="158" height="210"/><path class="cls-6" d="M219.44744,157.54674h3.58944a1.19646,1.19646,0,0,1,1.19646,1.19646v3.5895a1.19638,1.19638,0,0,1-1.19638,1.19638H219.4475a1.19649,1.19649,0,0,1-1.19649-1.19649v-3.58942a1.19643,1.19643,0,0,1,1.19643-1.19643Z" transform="translate(-48.7199 203.44475) rotate(-44.99627)"/><path class="cls-6" d="M224.73518,152.25119h3.5893a1.19648,1.19648,0,0,1,1.19648,1.19648v3.5893a1.19651,1.19651,0,0,1-1.19651,1.19651h-3.5893a1.19649,1.19649,0,0,1-1.19649-1.19649v-3.5893A1.19651,1.19651,0,0,1,224.73518,152.25119Z" transform="translate(-43.42606 205.63844) rotate(-44.9975)"/><path class="cls-6" d="M219.34792,154.39627l-.82567-.82556-7.00037-6.99993a1.19975,1.19975,0,0,0-1.69194,0l-7.00038,6.99993-.82567.82556a1.2,1.2,0,0,0,0,1.69216l.82567.82556,7.00038,6.99971a1.19955,1.19955,0,0,0,1.69194,0l7.00037-6.99971.82567-.82556a1.2,1.2,0,0,0,0-1.69216m-9.518,4.23006-1.88966-1.88955-.64847-.64836a1.2,1.2,0,0,1,0-1.69216l2.53813-2.53813a1.2,1.2,0,0,1,1.69194,0l2.53824,2.53813a1.2,1.2,0,0,1,0,1.69216l-.64858.64836-1.88966,1.88955a1.2,1.2,0,0,1-1.69194,0"/><path class="cls-6" d="M222.08818,153.33881l2.53813-2.53813a1.19989,1.19989,0,0,0,0-1.692l-2.53813-2.538a1.2,1.2,0,0,0-1.69194,0l-2.53824,2.538a1.19989,1.19989,0,0,0,0,1.692l2.53824,2.53813a1.20016,1.20016,0,0,0,1.69194,0"/><path class="cls-6" d="M230.52795,160.45522h-.76468v-1.52934h.76468a2.94625,2.94625,0,0,0,2.94271-2.94271V140.3624a2.94634,2.94634,0,0,0-2.94271-2.94316h-28.9717a2.94634,2.94634,0,0,0-2.94271,2.94316v15.62076a2.94624,2.94624,0,0,0,2.94271,2.94271h.76467v1.52934h-.76467a4.477,4.477,0,0,1-4.47206-4.47206V140.3624a4.47705,4.47705,0,0,1,4.47206-4.47217h28.9717A4.477,4.477,0,0,1,235,140.3624v15.62076a4.477,4.477,0,0,1-4.47206,4.47206"/></svg>