<svg data-name="Layer 1" xmlns="http://www.w3.org/2000/svg" viewBox="0 0 432 300"><defs><style>.cls-1{fill:#e1e1e1;}.cls-2{fill:#737577;}.cls-3{fill:#161616;}.cls-4{fill:#38383b;}.cls-5{fill:#742774;}.cls-6{fill:#fff;}</style></defs><title>AspectRatio-9-16</title><rect class="cls-1" width="432" height="300"/><path class="cls-2" d="M292,264.6V35.3a7.29887,7.29887,0,0,0-7.4-7.3H147.4a7.42764,7.42764,0,0,0-7.4,7.3V264.6a7.44765,7.44765,0,0,0,7.4,7.4H284.7A7.36248,7.36248,0,0,0,292,264.6Z"/><path class="cls-3" d="M147.4,270.5a5.91075,5.91075,0,0,1-5.9-5.9V35.3a5.91075,5.91075,0,0,1,5.9-5.9H284.7a5.97592,5.97592,0,0,1,5.9,5.9V264.6a5.95665,5.95665,0,0,1-5.8,5.9Z"/><path class="cls-4" d="M284.6,29.5H182.3l81.3,241h21.1a5.82636,5.82636,0,0,0,5.8-5.9V35.3A5.82638,5.82638,0,0,0,284.6,29.5Z"/><rect class="cls-5" x="157" y="45" width="118" height="210"/><path class="cls-6" d="M219.31506,155.57533h3.59768a1.19928,1.19928,0,0,1,1.19928,1.19928v3.59773a1.19918,1.19918,0,0,1-1.19918,1.19918h-3.59775a1.19926,1.19926,0,0,1-1.19926-1.19926v-3.5977a1.19923,1.19923,0,0,1,1.19923-1.19923Z" transform="translate(-47.36845 202.77877) rotate(-44.99627)"/><path class="cls-6" d="M224.615,150.26752h3.59761a1.19925,1.19925,0,0,1,1.19925,1.19925v3.59761a1.19928,1.19928,0,0,1-1.19928,1.19928H224.615a1.19926,1.19926,0,0,1-1.19926-1.19926V151.4668a1.19928,1.19928,0,0,1,1.19928-1.19928Z" transform="translate(-42.06233 204.97749) rotate(-44.9975)"/><path class="cls-6" d="M219.21527,152.41757l-.82758-.82747-7.01658-7.01614a1.20253,1.20253,0,0,0-1.69585,0l-7.01658,7.01614-.82759.82747a1.2028,1.2028,0,0,0,0,1.69608l.82759.82747,7.01658,7.01591a1.20233,1.20233,0,0,0,1.69585,0l7.01658-7.01591.82758-.82747a1.2028,1.2028,0,0,0,0-1.69608m-9.54,4.23986-1.894-1.89392-.65-.64986a1.2028,1.2028,0,0,1,0-1.69608l2.544-2.544a1.20274,1.20274,0,0,1,1.69585,0l2.54412,2.544a1.2028,1.2028,0,0,1,0,1.69608l-.65009.64986-1.894,1.89392a1.20273,1.20273,0,0,1-1.69585,0"/><path class="cls-6" d="M221.96188,151.35765l2.544-2.544a1.20267,1.20267,0,0,0,0-1.696l-2.544-2.54389a1.20274,1.20274,0,0,0-1.69586,0l-2.54412,2.54389a1.20267,1.20267,0,0,0,0,1.696l2.54412,2.544a1.20294,1.20294,0,0,0,1.69586,0"/><path class="cls-6" d="M230.42119,158.49054h-.76645v-1.53289h.76645a2.95307,2.95307,0,0,0,2.94953-2.94953V138.3512a2.95317,2.95317,0,0,0-2.94953-2.95H201.38241a2.95316,2.95316,0,0,0-2.94953,2.95v15.65693a2.95307,2.95307,0,0,0,2.94953,2.94953h.76644v1.53289h-.76644A4.48739,4.48739,0,0,1,196.9,154.00813V138.3512a4.48742,4.48742,0,0,1,4.48242-4.48253h29.03878a4.48735,4.48735,0,0,1,4.48241,4.48253v15.65693a4.48732,4.48732,0,0,1-4.48241,4.48241"/></svg>