<svg data-name="Layer 1" xmlns="http://www.w3.org/2000/svg" viewBox="0 0 432 300"><defs><style>.cls-1{fill:#e1e1e1;}.cls-2{fill:#737577;}.cls-3{fill:#161616;}.cls-4{fill:#38383b;}.cls-5{fill:#742774;}.cls-6{fill:#fff;}</style></defs><title>AspectRatio-16-09</title><rect class="cls-1" x="0.32499" y="-0.37499" width="432" height="300"/><path class="cls-2" d="M406.025,27.625H26.625a9.34681,9.34681,0,0,0-9.3,9.3v225.4a9.34679,9.34679,0,0,0,9.3,9.3h379.5a9.3468,9.3468,0,0,0,9.3-9.3V36.925a9.43327,9.43327,0,0,0-9.4-9.3Z"/><path class="cls-3" d="M26.625,269.625a7.34094,7.34094,0,0,1-7.3-7.3V36.925a7.341,7.341,0,0,1,7.3-7.3h379.5a7.34094,7.34094,0,0,1,7.3,7.3v225.4a7.34093,7.34093,0,0,1-7.3,7.3H26.625Z"/><path class="cls-4" d="M406.025,29.625h-232.5l130.5,240h102a7.34093,7.34093,0,0,0,7.3-7.3V36.925A7.34094,7.34094,0,0,0,406.025,29.625Z"/><rect class="cls-5" x="38.32499" y="49.62501" width="356" height="200"/><path class="cls-6" d="M220.29334,157.13815h4.52538a1.50852,1.50852,0,0,1,1.50852,1.50852v4.52544a1.50836,1.50836,0,0,1-1.50836,1.50836H220.2934a1.50849,1.50849,0,0,1-1.50849-1.50849v-4.52541a1.50842,1.50842,0,0,1,1.50842-1.50842Z" transform="translate(-48.59773 204.48252) rotate(-44.99627)"/><path class="cls-6" d="M226.95993,150.46171h4.52526a1.50848,1.50848,0,0,1,1.50848,1.50848v4.52526a1.50852,1.50852,0,0,1-1.50852,1.50852H226.9599a1.50849,1.50849,0,0,1-1.50849-1.50849v-4.52526a1.50852,1.50852,0,0,1,1.50852-1.50852Z" transform="translate(-41.92367 207.24675) rotate(-44.9975)"/><path class="cls-6" d="M220.16786,153.16616l-1.041-1.04084-8.82582-8.82526a1.51261,1.51261,0,0,0-2.13313,0l-8.82582,8.82526-1.041,1.04084a1.513,1.513,0,0,0,0,2.13341l1.041,1.04084,8.82582,8.825a1.51235,1.51235,0,0,0,2.13313,0l8.82582-8.825,1.041-1.04084a1.51294,1.51294,0,0,0,0-2.13341m-11.99993,5.33311-2.38241-2.38227-.81757-.81743a1.51294,1.51294,0,0,1,0-2.13341l3.2-3.2a1.51287,1.51287,0,0,1,2.13313,0l3.20012,3.2a1.51294,1.51294,0,0,1,0,2.13341l-.81771.81743-2.38241,2.38227a1.51286,1.51286,0,0,1-2.13313,0"/><path class="cls-6" d="M223.62268,151.83294l3.2-3.2a1.51278,1.51278,0,0,0,0-2.13328l-3.2-3.19984a1.51287,1.51287,0,0,0-2.13314,0l-3.20012,3.19984a1.51278,1.51278,0,0,0,0,2.13328l3.20012,3.2a1.51312,1.51312,0,0,0,2.13314,0"/><path class="cls-6" d="M234.26324,160.80506h-.96408v-1.92814h.96408a3.71452,3.71452,0,0,0,3.71007-3.71007V135.47275a3.71464,3.71464,0,0,0-3.71007-3.71063H197.73676a3.71464,3.71464,0,0,0-3.71007,3.71063v19.69409a3.71452,3.71452,0,0,0,3.71007,3.71007h.96407v1.92814h-.96407a5.64447,5.64447,0,0,1-5.63821-5.63821V135.47275a5.64451,5.64451,0,0,1,5.63821-5.63835h36.52648a5.64442,5.64442,0,0,1,5.63821,5.63835v19.69409a5.64438,5.64438,0,0,1-5.63821,5.63821"/></svg>