<svg data-name="Layer 1" xmlns="http://www.w3.org/2000/svg" viewBox="0 0 432 300"><defs><style>.cls-1{fill:#e1e1e1;}.cls-2{fill:#737577;}.cls-3{fill:#161616;}.cls-4{fill:#38383b;}.cls-5{fill:#742774;}.cls-6{fill:#fff;}</style></defs><title>AspectRatio-4-3</title><rect class="cls-1" width="432" height="300"/><path class="cls-2" d="M360.7,28H71.3A9.34681,9.34681,0,0,0,62,37.3V262.7a9.34679,9.34679,0,0,0,9.3,9.3H360.8a9.3468,9.3468,0,0,0,9.3-9.3V37.3a9.43327,9.43327,0,0,0-9.4-9.3Z"/><path class="cls-3" d="M71.3,270a7.34094,7.34094,0,0,1-7.3-7.3V37.3A7.341,7.341,0,0,1,71.3,30H360.7a7.34094,7.34094,0,0,1,7.3,7.3V262.7a7.34093,7.34093,0,0,1-7.3,7.3H71.3Z"/><path class="cls-4" d="M360.7,30H173.2L303.7,270h57a7.34093,7.34093,0,0,0,7.3-7.3V37.3A7.34094,7.34094,0,0,0,360.7,30Z"/><rect class="cls-5" x="83" y="50" width="266" height="200"/><path class="cls-6" d="M220.34333,157.51314h4.52544a1.50845,1.50845,0,0,1,1.50845,1.50845v4.52547a1.50839,1.50839,0,0,1-1.50839,1.50839h-4.52544a1.50849,1.50849,0,0,1-1.50849-1.50849v-4.52541a1.50842,1.50842,0,0,1,1.50842-1.50842Z" transform="translate(-48.84824 204.62768) rotate(-44.99627)"/><path class="cls-6" d="M227.00992,150.8367h4.52526a1.50848,1.50848,0,0,1,1.50848,1.50848v4.52526a1.50852,1.50852,0,0,1-1.50852,1.50852h-4.52526a1.50849,1.50849,0,0,1-1.50849-1.50849v-4.52526A1.50852,1.50852,0,0,1,227.00992,150.8367Z" transform="translate(-42.17418 207.39192) rotate(-44.9975)"/><path class="cls-6" d="M220.21785,153.54115l-1.041-1.04084-8.82582-8.82526a1.51261,1.51261,0,0,0-2.13313,0l-8.82582,8.82526-1.041,1.04084a1.513,1.513,0,0,0,0,2.13341l1.041,1.04084,8.82582,8.825a1.51235,1.51235,0,0,0,2.13313,0l8.82582-8.825,1.041-1.04084a1.51294,1.51294,0,0,0,0-2.13341m-11.99993,5.33311-2.38241-2.38227-.81757-.81743a1.51294,1.51294,0,0,1,0-2.13341l3.2-3.2a1.51287,1.51287,0,0,1,2.13313,0l3.20012,3.2a1.51294,1.51294,0,0,1,0,2.13341l-.81771.81743-2.38241,2.38227a1.51286,1.51286,0,0,1-2.13313,0"/><path class="cls-6" d="M223.67267,152.20793l3.2-3.2a1.51278,1.51278,0,0,0,0-2.13328l-3.2-3.19984a1.51287,1.51287,0,0,0-2.13314,0l-3.20012,3.19984a1.51278,1.51278,0,0,0,0,2.13328l3.20012,3.2a1.51312,1.51312,0,0,0,2.13314,0"/><path class="cls-6" d="M234.31323,161.18h-.96408v-1.92814h.96408a3.71452,3.71452,0,0,0,3.71007-3.71007V135.84774a3.71464,3.71464,0,0,0-3.71007-3.71063H197.78675a3.71464,3.71464,0,0,0-3.71007,3.71063v19.69409a3.71452,3.71452,0,0,0,3.71007,3.71007h.96407V161.18h-.96407a5.64447,5.64447,0,0,1-5.63821-5.63821V135.84774a5.64451,5.64451,0,0,1,5.63821-5.63835h36.52648a5.64442,5.64442,0,0,1,5.63821,5.63835v19.69409a5.64438,5.64438,0,0,1-5.63821,5.63821"/></svg>