<svg data-name="Layer 1" xmlns="http://www.w3.org/2000/svg" viewBox="0 0 432 300"><defs><style>.cls-1{fill:#e1e1e1;}.cls-2{fill:#737577;}.cls-3{fill:#161616;}.cls-4{fill:#38383b;}.cls-5{fill:#742774;}.cls-6{fill:#fff;}</style></defs><title>AspectRatio-16-10</title><rect class="cls-1" x="0.78749" y="1.52499" width="432" height="300"/><path class="cls-2" d="M388.48751,29.525h-343.4a9.34681,9.34681,0,0,0-9.3,9.3v225.4a9.34679,9.34679,0,0,0,9.3,9.3h343.5a9.3468,9.3468,0,0,0,9.3-9.3V38.825a9.43326,9.43326,0,0,0-9.4-9.3Z"/><path class="cls-3" d="M45.08749,271.525a7.34094,7.34094,0,0,1-7.3-7.3V38.825a7.341,7.341,0,0,1,7.3-7.3h343.5a7.34094,7.34094,0,0,1,7.3,7.3v225.4a7.34093,7.34093,0,0,1-7.3,7.3h-343.5Z"/><path class="cls-4" d="M388.48751,31.525h-214.5l130.5,240h84a7.34093,7.34093,0,0,0,7.3-7.3V38.825A7.34094,7.34094,0,0,0,388.48751,31.525Z"/><rect class="cls-5" x="56.78749" y="51.52499" width="320" height="200"/><path class="cls-6" d="M220.79342,159.48639h4.61633a1.53885,1.53885,0,0,1,1.53885,1.53885v4.61643a1.53868,1.53868,0,0,1-1.53868,1.53868h-4.61646a1.53881,1.53881,0,0,1-1.53881-1.53881v-4.61636a1.53878,1.53878,0,0,1,1.53878-1.53878Z" transform="translate(-50.15193 205.57813) rotate(-44.99627)"/><path class="cls-6" d="M227.594,152.67572h4.61624a1.53881,1.53881,0,0,1,1.53881,1.53881v4.61624a1.53885,1.53885,0,0,1-1.53885,1.53885H227.594a1.53881,1.53881,0,0,1-1.53881-1.53881v-4.61624A1.53885,1.53885,0,0,1,227.594,152.67572Z" transform="translate(-43.34373 208.39787) rotate(-44.9975)"/><path class="cls-6" d="M220.66538,155.43454l-1.06191-1.06177-9.00327-9.00269a1.543,1.543,0,0,0-2.176,0l-9.00327,9.00269-1.06191,1.06177a1.54337,1.54337,0,0,0,0,2.17631l1.06191,1.06177,9.00327,9.00241a1.54276,1.54276,0,0,0,2.176,0l9.00327-9.00241,1.06191-1.06177a1.54336,1.54336,0,0,0,0-2.17631m-12.24119,5.44034-2.43031-2.43017-.834-.83386a1.54336,1.54336,0,0,1,0-2.17631l3.26432-3.26432a1.54328,1.54328,0,0,1,2.176,0l3.26446,3.26432a1.54336,1.54336,0,0,1,0,2.17631l-.83415.83386-2.43031,2.43017a1.54327,1.54327,0,0,1-2.176,0"/><path class="cls-6" d="M224.18966,154.07452l3.26432-3.26432a1.54319,1.54319,0,0,0,0-2.17617l-3.26432-3.26418a1.54329,1.54329,0,0,0-2.176,0l-3.26446,3.26418a1.54319,1.54319,0,0,0,0,2.17617l3.26446,3.26432a1.54354,1.54354,0,0,0,2.176,0"/><path class="cls-6" d="M235.04416,163.227h-.98346v-1.96691h.98346a3.7892,3.7892,0,0,0,3.78466-3.78466v-20.09a3.78933,3.78933,0,0,0-3.78466-3.78523H197.7833a3.78933,3.78933,0,0,0-3.78466,3.78523v20.09a3.7892,3.7892,0,0,0,3.78466,3.78466h.98345V163.227h-.98345a5.758,5.758,0,0,1-5.75157-5.75157v-20.09a5.758,5.758,0,0,1,5.75157-5.75171h37.26085a5.7579,5.7579,0,0,1,5.75157,5.75171v20.09a5.75786,5.75786,0,0,1-5.75157,5.75157"/></svg>