<svg data-name="Layer 1" xmlns="http://www.w3.org/2000/svg" viewBox="0 0 432 300"><defs><style>.cls-1{fill:#e1e1e1;}.cls-2{fill:#737577;}.cls-3{fill:#161616;}.cls-4{fill:#38383b;}.cls-5{fill:#742774;}.cls-6{fill:#fff;}</style></defs><title>AspectRatio-3-2</title><rect class="cls-1" width="432" height="300"/><path class="cls-2" d="M377.7,28H54.3A9.34681,9.34681,0,0,0,45,37.3V262.7a9.34679,9.34679,0,0,0,9.3,9.3H377.8a9.3468,9.3468,0,0,0,9.3-9.3V37.3a9.43327,9.43327,0,0,0-9.4-9.3Z"/><path class="cls-3" d="M54.3,270a7.34094,7.34094,0,0,1-7.3-7.3V37.3A7.341,7.341,0,0,1,54.3,30H377.8a7.34094,7.34094,0,0,1,7.3,7.3V262.7a7.34093,7.34093,0,0,1-7.3,7.3H54.3Z"/><path class="cls-4" d="M377.7,30H173.2L303.7,270h74a7.34093,7.34093,0,0,0,7.3-7.3V37.3A7.34094,7.34094,0,0,0,377.7,30Z"/><rect class="cls-5" x="66" y="53.5" width="300" height="200"/><path class="cls-6" d="M220.28375,160.855h4.44933a1.48318,1.48318,0,0,1,1.48318,1.48318v4.44943a1.483,1.483,0,0,1-1.483,1.483h-4.44946a1.48315,1.48315,0,0,1-1.48315-1.48315v-4.44937a1.48312,1.48312,0,0,1,1.48312-1.48312Z" transform="translate(-51.19496 205.51878) rotate(-44.99627)"/><path class="cls-6" d="M226.83834,154.29074h4.44926a1.48315,1.48315,0,0,1,1.48315,1.48315v4.44925a1.48318,1.48318,0,0,1-1.48318,1.48318h-4.44925a1.48315,1.48315,0,0,1-1.48315-1.48315v-4.44925a1.48318,1.48318,0,0,1,1.48318-1.48318Z" transform="translate(-44.63304 208.23673) rotate(-44.9975)"/><path class="cls-6" d="M220.16035,156.94976l-1.02349-1.02336-8.67758-8.677a1.4872,1.4872,0,0,0-2.09731,0l-8.67758,8.677-1.0235,1.02336a1.48754,1.48754,0,0,0,0,2.09758l1.0235,1.02336,8.67758,8.67675a1.487,1.487,0,0,0,2.09731,0l8.67758-8.67675,1.02349-1.02336a1.48753,1.48753,0,0,0,0-2.09758M208.362,162.1933l-2.3424-2.34226-.80384-.8037a1.48753,1.48753,0,0,1,0-2.09758l3.14624-3.14624a1.48746,1.48746,0,0,1,2.09731,0l3.14637,3.14624a1.48753,1.48753,0,0,1,0,2.09758l-.804.8037-2.34239,2.34226a1.48745,1.48745,0,0,1-2.09731,0"/><path class="cls-6" d="M223.55714,155.63894l3.14623-3.14623a1.48737,1.48737,0,0,0,0-2.09744l-3.14623-3.1461a1.48746,1.48746,0,0,0-2.09731,0l-3.14637,3.1461a1.48737,1.48737,0,0,0,0,2.09744l3.14637,3.14623a1.48771,1.48771,0,0,0,2.09731,0"/><path class="cls-6" d="M234.019,164.46035h-.94788V162.5646h.94788a3.65213,3.65213,0,0,0,3.64775-3.64775V139.55353a3.65225,3.65225,0,0,0-3.64775-3.64831H198.106a3.65225,3.65225,0,0,0-3.64775,3.64831v19.36331a3.65213,3.65213,0,0,0,3.64775,3.64775h.94788v1.89576H198.106a5.54967,5.54967,0,0,1-5.54351-5.54351V139.55353a5.5497,5.5497,0,0,1,5.54351-5.54365h35.913a5.54961,5.54961,0,0,1,5.54351,5.54365v19.36331a5.54958,5.54958,0,0,1-5.54351,5.54351"/></svg>