<?xml version="1.0" encoding="utf-8"?>
<!-- Generator: Adobe Illustrator 21.0.1, SVG Export Plug-In . SVG Version: 6.00 Build 0)  -->
<svg version="1.1" xmlns="http://www.w3.org/2000/svg" xmlns:xlink="http://www.w3.org/1999/xlink" x="0px" y="0px"
	 viewBox="0 0 432 300" style="enable-background:new 0 0 432 300;" xml:space="preserve">
<style type="text/css">
	.st0{fill:#E1E1E1;}
	.st1{fill:#737577;}
	.st2{fill:#161616;}
	.st3{fill:#38383B;}
	.st4{fill:#742774;}
	.st5{fill:#FFFFFF;}
</style>
<title>AspectRatio-10-16</title>
<rect x="1" y="-0.2" class="st0" width="432" height="300"/>
<path class="st1" d="M299,264.6V35.3c0-4-3.3-7.3-7.3-7.3c0,0-0.1,0-0.1,0H140.4c-4,0-7.3,3.3-7.4,7.3v229.3c0,4.1,3.3,7.4,7.4,7.4
	h151.3C295.8,272,299,268.7,299,264.6z"/>
<path class="st2" d="M140.4,270.5c-3.3,0-5.9-2.6-5.9-5.9V35.3c0-3.3,2.6-5.9,5.9-5.9h151.3c3.2,0,5.9,2.7,5.9,5.9v229.3
	c0,3.2-2.6,5.8-5.8,5.9H140.4z"/>
<path class="st3" d="M291.6,29.5H182.3l81.3,241h28.1c3.2,0,5.8-2.6,5.8-5.9c0,0,0,0,0,0V35.3C297.5,32.1,294.9,29.5,291.6,29.5
	C291.6,29.5,291.6,29.5,291.6,29.5z"/>
<rect x="150" y="45" class="st4" width="132" height="210"/>
<g>
	<g>
		<path class="st5" d="M218.9,159.8l2.6-2.6c0.5-0.5,1.3-0.5,1.7,0l2.6,2.6c0.5,0.5,0.5,1.3,0,1.7l-2.6,2.6c-0.5,0.5-1.3,0.5-1.7,0
			l-2.6-2.6C218.5,161,218.5,160.3,218.9,159.8z"/>
		<path class="st5" d="M224.3,154.4l2.6-2.6c0.5-0.5,1.3-0.5,1.7,0l2.6,2.6c0.5,0.5,0.5,1.3,0,1.7l0,0l-2.6,2.6
			c-0.5,0.5-1.3,0.5-1.7,0l-2.6-2.6C223.9,155.6,223.9,154.8,224.3,154.4L224.3,154.4z"/>
		<path class="st5" d="M220.5,154.4l-0.8-0.8l0,0l-7.2-7.2c-0.5-0.5-1.3-0.5-1.7,0l-7.2,7.2l0,0l-0.8,0.8c-0.5,0.5-0.5,1.3,0,1.7
			l0.8,0.8l0,0l7.2,7.2c0.5,0.5,1.3,0.5,1.7,0l7.2-7.2l0,0l0.8-0.8C220.9,155.6,221,154.9,220.5,154.4
			C220.5,154.4,220.5,154.4,220.5,154.4z M210.7,158.7l-1.9-1.9l-0.7-0.7c-0.5-0.5-0.5-1.3,0-1.7l2.6-2.6c0.5-0.5,1.3-0.5,1.7,0
			l2.6,2.6c0.5,0.5,0.5,1.3,0,1.7l-0.7,0.7l-1.9,1.9C212,159.2,211.2,159.2,210.7,158.7z"/>
		<path class="st5" d="M218.9,149l2.6-2.6c0.5-0.5,1.3-0.5,1.7,0l2.6,2.6c0.5,0.5,0.5,1.3,0,1.7l-2.6,2.6c-0.5,0.5-1.3,0.5-1.7,0
			l-2.6-2.6C218.5,150.2,218.5,149.4,218.9,149L218.9,149z"/>
		<path class="st5" d="M231.9,160.6h-0.8V159h0.8c1.7,0,3-1.3,3-3v-16c0-1.7-1.3-3-3-3h-29.7c-1.7,0-3,1.3-3,3v16c0,1.7,1.3,3,3,3
			h0.8v1.6h-0.8c-2.5,0-4.6-2.1-4.6-4.6v-16c0-2.5,2.1-4.6,4.6-4.6h29.7c2.5,0,4.6,2.1,4.6,4.6v16
			C236.5,158.5,234.4,160.6,231.9,160.6"/>
	</g>
</g>
</svg>
