<svg data-name="Layer 1" xmlns="http://www.w3.org/2000/svg" viewBox="0 0 432 300"><defs><style>.cls-1{fill:#e1e1e1;}.cls-2{fill:#737577;}.cls-3{fill:#161616;}.cls-4{fill:#38383b;}.cls-5{fill:#742774;}.cls-6{fill:#fff;}</style></defs><title>AspectRatio-2-3</title><rect class="cls-1" y="0.125" width="432" height="300"/><path class="cls-2" d="M303,264.725V35.425a7.29887,7.29887,0,0,0-7.4-7.3H136.4a7.42764,7.42764,0,0,0-7.4,7.3v229.3a7.44765,7.44765,0,0,0,7.4,7.4H295.7A7.36248,7.36248,0,0,0,303,264.725Z"/><path class="cls-3" d="M136.4,270.625a5.91075,5.91075,0,0,1-5.9-5.9V35.425a5.91075,5.91075,0,0,1,5.9-5.9H295.7a5.97592,5.97592,0,0,1,5.9,5.9v229.3a5.95665,5.95665,0,0,1-5.8,5.9Z"/><path class="cls-4" d="M295.6,29.625H182.3l81.3,241h32.1a5.82636,5.82636,0,0,0,5.8-5.9V35.425A5.82638,5.82638,0,0,0,295.6,29.625Z"/><rect class="cls-5" x="146" y="45.125" width="140" height="210"/><path class="cls-6" d="M219.31294,155.92961h3.59739a1.19912,1.19912,0,0,1,1.19912,1.19912v3.59747a1.199,1.199,0,0,1-1.199,1.199H219.313a1.19919,1.19919,0,0,1-1.19919-1.19919v-3.59731a1.19912,1.19912,0,0,1,1.19912-1.19912Z" transform="translate(-47.61942 202.88082) rotate(-44.99627)"/><path class="cls-6" d="M224.61239,150.6223h3.59727a1.19914,1.19914,0,0,1,1.19914,1.19914v3.59727a1.19917,1.19917,0,0,1-1.19917,1.19917h-3.59727a1.19914,1.19914,0,0,1-1.19914-1.19914v-3.59727A1.19917,1.19917,0,0,1,224.61239,150.6223Z" transform="translate(-42.3138 205.07934) rotate(-44.9975)"/><path class="cls-6" d="M219.21316,152.77215l-.82751-.8274-7.01592-7.01547a1.20242,1.20242,0,0,0-1.69569,0l-7.01592,7.01547-.82751.8274a1.20269,1.20269,0,0,0,0,1.69592l.82751.8274,7.01592,7.01525a1.20222,1.20222,0,0,0,1.69569,0l7.01592-7.01525.82751-.8274a1.20269,1.20269,0,0,0,0-1.69592M209.674,157.0116l-1.89385-1.89374-.64991-.6498a1.20269,1.20269,0,0,1,0-1.69592l2.54377-2.54377a1.20262,1.20262,0,0,1,1.69569,0l2.54388,2.54377a1.20269,1.20269,0,0,1,0,1.69592l-.65.6498-1.89385,1.89374a1.20262,1.20262,0,0,1-1.69569,0"/><path class="cls-6" d="M221.95951,151.71233l2.54376-2.54376a1.20255,1.20255,0,0,0,0-1.69581l-2.54376-2.54365a1.20263,1.20263,0,0,0-1.6957,0l-2.54388,2.54365a1.20255,1.20255,0,0,0,0,1.69581l2.54388,2.54376a1.20283,1.20283,0,0,0,1.6957,0"/><path class="cls-6" d="M230.418,158.84455h-.76637V157.3118h.76637a2.95279,2.95279,0,0,0,2.94925-2.94925V138.70711a2.95289,2.95289,0,0,0-2.94925-2.9497H201.382a2.95288,2.95288,0,0,0-2.94925,2.9497v15.65545a2.95279,2.95279,0,0,0,2.94925,2.94925h.76637v1.53274H201.382a4.487,4.487,0,0,1-4.482-4.482V138.70711a4.487,4.487,0,0,1,4.482-4.4821h29.036a4.48692,4.48692,0,0,1,4.482,4.4821v15.65545a4.4869,4.4869,0,0,1-4.482,4.482"/></svg>